<svg version="1.1" xmlns="http://www.w3.org/2000/svg" viewBox="0 0 43.48892233791412 43.48892233791412" width="86.97784467582824" height="86.97784467582824"><!-- svg-source:excalidraw --><metadata></metadata><defs><style class="style-fonts">
      </style></defs><rect x="0" y="0" width="43.48892233791412" height="43.48892233791412" fill="#ffffff"></rect><g stroke-linecap="round" transform="translate(5.135284901054092 5.135284901054092) rotate(44.99999999999995 16.609176267902967 16.609176267902967)"><path d="M16.91 -0.18 L34.14 16.42 L17.78 32.5 L-0.14 17.41" stroke="none" stroke-width="0" fill="#1971c2" fill-rule="evenodd"></path><path d="M17 0 C22.62 6.24, 28.12 11.12, 33.22 17 M17 0 C22.39 6.04, 28.48 11, 33.22 17 M33.22 17 C28.57 21.65, 24.03 25.73, 17 33.22 M33.22 17 C29.25 21.01, 24.03 25.6, 17 33.22 M17 33.22 C12.72 29.58, 8.11 24.26, 0 17 M17 33.22 C10.74 27.4, 3.85 20.83, 0 17 M0 17 C4.78 10.71, 11.08 6.73, 17 0 M0 17 C4.1 12.52, 9.31 7.84, 17 0" stroke="#1971c2" stroke-width="2" fill="none"></path></g></svg>