<svg version="1.1" xmlns="http://www.w3.org/2000/svg" viewBox="0 0 78.26967514516582 77.7015510829342" width="156.53935029033164" height="155.4031021658684"><!-- svg-source:excalidraw --><metadata></metadata><defs><style class="style-fonts">
      </style></defs><rect x="0" y="0" width="78.26967514516582" height="77.7015510829342" fill="#ffffff"></rect><g stroke-linecap="round" transform="translate(10.500196391915779 10.527633966315989) rotate(0 28.586958558309107 28.586958558309107)"><path d="M1.56 -0.53 L59.1 -0.28 L58.53 55.92 L-1.62 56.41" stroke="none" stroke-width="0" fill="#ffffff"></path><path d="M0 0 C12.2 1.28, 26.16 -1.65, 57.17 0 M0 0 C12.87 -0.87, 26.35 0.5, 57.17 0 M57.17 0 C55.95 16.07, 56.91 32.05, 57.17 57.17 M57.17 0 C57.56 19.82, 57.73 39.91, 57.17 57.17 M57.17 57.17 C34.66 57.27, 16.05 57.15, 0 57.17 M57.17 57.17 C36.2 58.04, 14.29 58.16, 0 57.17 M0 57.17 C-0.2 42, -0.82 27.56, 0 0 M0 57.17 C0.51 44.14, 0.43 28.94, 0 0" stroke="#1e1e1e" stroke-width="4" fill="none"></path></g><g stroke-linecap="round"><g transform="translate(11.095758028547607 51.04099415870314) rotate(0 28.586958558309107 0)"><path d="M0 0 C14.12 -2.24, 26.51 -1.93, 57.17 0 M0 0 C22.96 1.2, 43.95 0.26, 57.17 0" stroke="#1e1e1e" stroke-width="4" fill="none"></path></g></g><mask></mask><g stroke-linecap="round"><g transform="translate(30.262583777339387 10.063016750178576) rotate(0 0 11.581920808058157)"><path d="M0 0 C-0.77 7.24, 0.86 16.28, 0 23.16 M0 0 C0.04 6.09, -0.17 11.83, 0 23.16" stroke="#1e1e1e" stroke-width="4" fill="none"></path></g></g><mask></mask><g stroke-linecap="round"><g transform="translate(46.577050684630194 10) rotate(0 0 11.613429183147446)"><path d="M0 0 C0.77 4.84, -0.47 10.3, 0 23.23 M0 0 C-0.29 8.94, -0.09 18.44, 0 23.23" stroke="#1e1e1e" stroke-width="4" fill="none"></path></g></g><mask></mask><g stroke-linecap="round"><g transform="translate(46.757660903645046 33.79285689454082) rotate(0 10.13453778633425 0)"><path d="M0 0 C4.02 0.9, 9.79 -0.15, 20.27 0 M0 0 C6.1 -0.01, 12.18 0.33, 20.27 0" stroke="#1e1e1e" stroke-width="4" fill="none"></path></g></g><mask></mask><g stroke-linecap="round"><g transform="translate(10 33.54758124880027) rotate(0 10.325100400932342 0)"><path d="M0 0 C7.48 -0.23, 13.05 -0.65, 20.65 0 M0 0 C4.74 0.28, 9.55 -0.24, 20.65 0" stroke="#1e1e1e" stroke-width="4" fill="none"></path></g></g><mask></mask></svg>