<svg version="1.1" xmlns="http://www.w3.org/2000/svg" viewBox="0 0 53.218352535805934 53.218352535805934" width="106.43670507161187" height="106.43670507161187"><!-- svg-source:excalidraw --><metadata></metadata><defs><style class="style-fonts">
      </style></defs>
      <rect x="0" y="0" width="53.218352535805934" height="53.218352535805934" fill="#ffffff"></rect>
      <g stroke-linecap="round" transform="translate(10 10) rotate(0 16.609176267902967 16.609176267902967)">
      <path d="M17 0 C20.3 4.2, 24.48 8.88, 33.22 17 M17 0 C19.9 3.45, 23.8 7.1, 33.22 17 M33.22 17 C27.63 23.53, 21.83 29.19, 17 33.22 M33.22 17 C28.66 22.22, 22.7 27.35, 17 33.22 M17 33.22 C9.88 27.24, 4.25 22.15, 0 17 M17 33.22 C13.58 30.04, 9.76 26.98, 0 17 M0 17 C6.17 10.09, 14.49 3.29, 17 0 M0 17 C5.61 11.33, 11.25 5.93, 17 0" stroke="#e03131" stroke-width="2" fill="none">
      </path>
      </g></svg>