<svg version="1.1" xmlns="http://www.w3.org/2000/svg" viewBox="0 0 152 75" width="152" height="75">
  <metadata>Düz kanal: road-i ile aynı dış çerçeve (dikdörtgen), 2 kare; sadece iki çizgi arası mavi</metadata>
  <!-- Arka plan beyaz -->
  <rect x="0" y="0" width="152" height="75" fill="#ffffff"/>
  <!-- road-i ile aynı dış çerçeve – path birebir, 152x75 ölçekli (55x55 → 152x75) -->
  <g transform="scale(2.763636, 1.363636)" stroke-linecap="round">
    <path d="M-1.69 0.01 L56.2 -0.58 L56.79 55.18 L-1.18 54.65" stroke="none" fill="#ffffff"/>
    <path d="M0 0 C12.8 -0.84, 25.5 -1.45, 55.05 0 M0 0 C13.47 0.61, 26.76 -0.7, 55.05 0 M55.05 0 C54.62 22.16, 53.65 40, 55.05 55.05 M55.05 0 C55.29 13.5, 55.33 28.81, 55.05 55.05 M55.05 55.05 C38.34 56.45, 21.24 55.43, 0 55.05 M55.05 55.05 C33.95 55.4, 14.66 55.4, 0 55.05 M0 55.05 C-0.13 37.74, 0.87 15.35, 0 0 M0 55.05 C-0.31 36.61, 0.33 17.38, 0 0" stroke="#1e1e1e" stroke-width="2.93" fill="none"/>
  </g>
  <!-- Sadece iki çizgi arası mavi su -->
  <rect x="0" y="28" width="152" height="19" fill="#0288d1"/>
  <path d="M 0 28 L 152 28" stroke="#1e1e1e" stroke-width="4" fill="none" stroke-linecap="round"/>
  <path d="M 0 47 L 152 47" stroke="#1e1e1e" stroke-width="4" fill="none" stroke-linecap="round"/>
</svg>
