<svg version="1.1" xmlns="http://www.w3.org/2000/svg" viewBox="0 0 78.53233385516296 78.4467009136265" width="78.53" height="78.45">
  <metadata>Köşe kanal: road-l ile aynı dış çerçeve; sadece iki iç çizgi arası L şeridi mavi</metadata>
  <rect x="0" y="0" width="78.53233385516296" height="78.4467009136265" fill="#ffffff"/>
  <!-- Dış çerçeve (yol ile aynı renk ve kalınlık) + iç beyaz -->
  <g stroke-linecap="round" transform="translate(10.08563294153646 10) rotate(0 29.22335045681325 29.22335045681325)">
    <path d="M-1.72 0.28 L60.25 1.28 L56.97 59.44 L-0.5 59.45" stroke="none" fill="#ffffff"/>
    <path d="M0 0 C16.2 0.12, 31.66 1.27, 58.45 0 M0 0 C20.96 0.34, 41.32 -0.85, 58.45 0 M58.45 0 C57.16 10.26, 57.15 22.99, 58.45 58.45 M58.45 0 C58.53 19.66, 59.29 39.97, 58.45 58.45 M58.45 58.45 C34.03 57.23, 11.34 58.04, 0 58.45 M58.45 58.45 C43.48 57.94, 27.71 57.61, 0 58.45 M0 58.45 C1.33 37.78, 1.17 15.43, 0 0 M0 58.45 C1.05 47.55, 0.79 35.6, 0 0" stroke="#1e1e1e" stroke-width="4" fill="none"/>
  </g>
  <!-- Sadece iki iç çizgi arası: yatay şerit (y 37.44–52.69) + dikey şerit (x 33.79–52.07, y 10.16–37.44) -->
  <path d="M 10.69 37.44 L 52.07 37.44 L 52.07 52.69 L 10.69 52.69 Z M 33.79 10.16 L 52.07 10.16 L 52.07 37.44 L 33.79 37.44 Z" fill="#0288d1"/>
  <!-- İç çizgiler (yol ile aynı renk ve kalınlık) -->
  <g stroke-linecap="round">
    <g transform="translate(10.694452742720387 37.435183265200976) rotate(0 11.613385082258674 -13.641489157451815)">
      <path d="M0 0 C8.07 0.67, 15.22 0.47, 23.1 0 M0 0 C7.86 -0.35, 15.84 -0.2, 23.1 0 M23.1 0 C22.63 -7.07, 23.68 -12.61, 23.23 -27.28 M23.1 0 C23.53 -10.64, 23.68 -21.09, 23.23 -27.28" stroke="#1e1e1e" stroke-width="4" fill="none"/>
    </g>
  </g>
  <g stroke-linecap="round">
    <g transform="translate(10 52.68629072463045) rotate(0 21.15377051754035 -20.986057712461843)">
      <path d="M0 0 C13.66 0.33, 26.67 -0.13, 42.07 0 M0 0 C14.9 -0.01, 30.37 -0.17, 42.07 0 M42.07 0 C42.68 -8.4, 43.14 -16.98, 42.31 -41.97 M42.07 0 C42.45 -10.73, 42.37 -21.63, 42.31 -41.97" stroke="#1e1e1e" stroke-width="4" fill="none"/>
    </g>
  </g>
</svg>
