<svg version="1.1" xmlns="http://www.w3.org/2000/svg" viewBox="0 0 76.0401384222614 75.04640269328411" width="152.0802768445228" height="150.09280538656822"><!-- svg-source:excalidraw --><metadata></metadata><defs><style class="style-fonts">
      </style></defs><rect x="0" y="0" width="76.0401384222614" height="75.04640269328411" fill="#ffffff"></rect><g stroke-linecap="round" transform="translate(10.420335700921896 10) rotate(0 27.523201346642054 27.523201346642054)"><path d="M-1.69 0.01 L56.2 -0.58 L56.79 55.18 L-1.18 54.65" stroke="none" stroke-width="0" fill="#ffffff"></path><rect x="0" y="0" width="55.05" height="55.05" rx="8" ry="8" fill="none" stroke="#1e1e1e" stroke-width="4"/></g><g stroke-linecap="round"><g transform="translate(10.993735728977299 28.048041294987343) rotate(0 27.523201346642054 0)"><path d="M0 0 C10.37 -1.58, 21.86 -1.06, 55.05 0 M0 0 C18.97 -0.93, 38.68 -0.74, 55.05 0" stroke="#1e1e1e" stroke-width="4" fill="none"></path></g></g><mask></mask><g stroke-linecap="round"><g transform="translate(10 45.26705380432395) rotate(0 27.523201346642054 0)"><path d="M0 0 C11.69 -0.89, 26.55 0.75, 55.05 0 M0 0 C21.98 -0.01, 43.37 0.11, 55.05 0" stroke="#1e1e1e" stroke-width="4" fill="none"></path></g></g><mask></mask></svg>