<svg version="1.1" xmlns="http://www.w3.org/2000/svg" viewBox="0 0 77.44754396576309 77.47487375317951" width="154.89508793152618" height="154.94974750635902"><!-- svg-source:excalidraw --><metadata></metadata><defs><style class="style-fonts">
      </style></defs><rect x="0" y="0" width="77.44754396576309" height="77.47487375317951" fill="#ffffff"></rect><g stroke-linecap="round" transform="translate(10.498231398249118 10.525561185665538) rotate(0 28.474656283756985 28.474656283756985)"><path d="M1.01 0.03 L57.39 -0.63 L58.05 57.96 L1.1 58.58" stroke="none" stroke-width="0" fill="#ffffff"></path><rect x="0" y="0" width="56.95" height="56.95" rx="8" ry="8" fill="none" stroke="#1e1e1e" stroke-width="4"/></g><g stroke-linecap="round"><g transform="translate(10.842119235688187 47.887756877255015) rotate(0 9.400592395645845 0)"><path d="M0 0 C4.79 -0.08, 10.62 -0.26, 18.8 0 M0 0 C6.97 -0.15, 13.7 -0.22, 18.8 0" stroke="#1e1e1e" stroke-width="4" fill="none"></path></g></g><mask></mask><g stroke-linecap="round"><g transform="translate(30.182983345490356 10.062769192385531) rotate(0 0 11.536421877216299)"><path d="M0 0 C-0.22 5.31, 0.47 10.79, 0 23.07 M0 0 C0.5 5.44, 0.42 11.03, 0 23.07" stroke="#1e1e1e" stroke-width="4" fill="none"></path></g></g><mask></mask><g stroke-linecap="round"><g transform="translate(46.43335977816605 10) rotate(0 0 11.56780647340861)"><path d="M0 0 C0.52 6.11, -0.54 13.89, 0 23.14 M0 0 C0.44 5.55, -0.11 11.59, 0 23.14" stroke="#1e1e1e" stroke-width="4" fill="none"></path></g></g><mask></mask><g stroke-linecap="round"><g transform="translate(46.613260479995006 33.69938798136809) rotate(0 10.09472481908142 0)"><path d="M0 0 C4.87 0.72, 10.36 0.89, 20.19 0 M0 0 C4.7 -0.27, 9.91 0.36, 20.19 0" stroke="#1e1e1e" stroke-width="4" fill="none"></path></g></g><mask></mask><g stroke-linecap="round"><g transform="translate(10 33.45507588734108) rotate(0 10.284538819061481 0)"><path d="M0 0 C4.73 0.77, 9.73 0.63, 20.57 0 M0 0 C4.55 0.35, 8.98 0.45, 20.57 0" stroke="#1e1e1e" stroke-width="4" fill="none"></path></g></g><mask></mask><g stroke-linecap="round"><g transform="translate(30.207799164030803 47.846711737616715) rotate(0 0 9.54716027432869)"><path d="M0 0 C-0.58 7.67, -0.83 13.61, 0 19.09 M0 0 C0.07 4.75, 0.34 9.07, 0 19.09" stroke="#1e1e1e" stroke-width="4" fill="none"></path></g></g><mask></mask><g stroke-linecap="round"><g transform="translate(46.458175596706496 47.79476603500916) rotate(0 0 9.573133125632467)"><path d="M0 0 C-0.85 6.95, -0.72 14.86, 0 19.15 M0 0 C0.34 7.1, 0.24 13.89, 0 19.15" stroke="#1e1e1e" stroke-width="4" fill="none"></path></g></g><mask></mask><g stroke-linecap="round"><g transform="translate(46.9849852931402 47.80698969918194) rotate(0 10.09472481908142 0)"><path d="M0 0 C6.76 0.21, 15.48 0.15, 20.19 0 M0 0 C7.81 0.21, 15.15 0.27, 20.19 0" stroke="#1e1e1e" stroke-width="4" fill="none"></path></g></g><mask></mask></svg>