<svg version="1.1" xmlns="http://www.w3.org/2000/svg" viewBox="0 0 52.14062771210911 50.64293341386883" width="104.28125542421822" height="101.28586682773766"><!-- svg-source:excalidraw --><metadata></metadata><defs><style class="style-fonts">
      </style></defs>
      <rect x="0" y="0" width="52.14062771210911" height="50.64293341386883" fill="#ffffff">
      </rect><g stroke-linecap="round"><g transform="translate(42.186433341571046 18.208613741714316) rotate(99.20129446909365 -14.776317888265794 6.489461217493499)">
      <path d="M-0.49 0.05 C-1.52 3.74, -1.26 20.43, -6.04 22.02 C-10.82 23.61, -28.9 14.86, -29.15 9.59 C-29.4 4.32, -11.04 -6.51, -7.55 -9.6 M0.26 -0.4 C-0.61 3.36, -0.1 21, -5.03 22.52 C-9.95 24.04, -28.91 14.02, -29.29 8.74 C-29.67 3.45, -10.96 -6.02, -7.31 -9.19" stroke="#2f9e44" stroke-width="2" fill="#ffffff">
      </path></g><g transform="translate(42.186433341571046 18.208613741714316) rotate(99.20129446909365 -14.776317888265794 6.489461217493499)"><path d="M-7.05 -10.05 L-15.59 4 L-21.83 -7.17 L-7.51 -9.4" stroke="#ffffff" stroke-width="0" fill="#2f9e44" fill-rule="evenodd">
      </path>
      <path d="M-7.31 -9.19 C-9.66 -5.86, -12.64 -0.85, -14.78 3.04 M-7.31 -9.19 C-10.36 -4.31, -13.22 -0.31, -14.78 3.04 M-14.78 3.04 C-16.61 -1, -20.14 -3.87, -21.48 -7.05 M-14.78 3.04 C-17.15 -0.36, -19.03 -3.47, -21.48 -7.05 M-21.48 -7.05 C-16.93 -7.95, -12.28 -8.26, -7.31 -9.19 M-21.48 -7.05 C-16.7 -7.8, -11.03 -8.52, -7.31 -9.19 M-7.31 -9.19 C-7.31 -9.19, -7.31 -9.19, -7.31 -9.19 M-7.31 -9.19 C-7.31 -9.19, -7.31 -9.19, -7.31 -9.19" stroke="#2f9e44" stroke-width="2" fill="none">
      </path>
      </g>
      </g>
      <mask>
      </mask>
</svg>