<svg version="1.1" xmlns="http://www.w3.org/2000/svg" viewBox="0 0 75.04640269328388 75.04640269328411" width="150.09280538656776" height="150.09280538656822"><!-- svg-source:excalidraw --><metadata></metadata><defs><style class="style-fonts">
      </style></defs>
      <rect x="0" y="0" width="75.04640269328388" height="75.04640269328411" fill="#ffffff"></rect>
      <g stroke-linecap="round" transform="translate(10 10) rotate(0 27.52320134664194 27.523201346642054)">
      <path d="M-1.92 -0.75 L53.67 1.67 L53.36 53.56 L-0.47 53.54" stroke="none" stroke-width="0" fill="#ffffff">
      </path>
      <path d="M0 0 C20.43 -1.19, 37.47 -0.86, 55.05 0 M0 0 C15.37 -0.43, 31.86 0.71, 55.05 0 M55.05 0 C53.99 14.1, 53.66 26.87, 55.05 55.05 M55.05 0 C55.34 12.69, 53.79 25.33, 55.05 55.05 M55.05 55.05 C39.78 53.12, 27.86 53.51, 0 55.05 M55.05 55.05 C35.6 55.54, 17.21 55.19, 0 55.05 M0 55.05 C-2.49 36.68, 0.73 19.99, 0 0 M0 55.05 C1.03 35.35, 0.72 17.71, 0 0" stroke="#1e1e1e" stroke-width="4" fill="none">
      </path>
      <text x="5" y="35" font-size="24px" font-family="system-ui" stroke="#2f9e44" fill="#2f9e44">$$$</text>
      </g>
</svg>