<svg version="1.1" xmlns="http://www.w3.org/2000/svg" viewBox="0 0 76.0401384222614 75.04640269328411" width="152.0802768445228" height="150.09280538656822"><!-- svg-source:excalidraw --><metadata></metadata><defs><style class="style-fonts">
      </style></defs><rect x="0" y="0" width="76.0401384222614" height="75.04640269328411" fill="#ffffff"></rect><g stroke-linecap="round" transform="translate(10.420335700921896 10) rotate(0 27.523201346642054 27.523201346642054)"><path d="M-1.69 0.01 L56.2 -0.58 L56.79 55.18 L-1.18 54.65" stroke="none" stroke-width="0" fill="#ffffff"></path><path d="M0 0 C12.8 -0.84, 25.5 -1.45, 55.05 0 M0 0 C13.47 0.61, 26.76 -0.7, 55.05 0 M55.05 0 C54.62 22.16, 53.65 40, 55.05 55.05 M55.05 0 C55.29 13.5, 55.33 28.81, 55.05 55.05 M55.05 55.05 C38.34 56.45, 21.24 55.43, 0 55.05 M55.05 55.05 C33.95 55.4, 14.66 55.4, 0 55.05 M0 55.05 C-0.13 37.74, 0.87 15.35, 0 0 M0 55.05 C-0.31 36.61, 0.33 17.38, 0 0" stroke="#1e1e1e" stroke-width="4" fill="none"></path></g><g stroke-linecap="round"><g transform="translate(10.993735728977299 28.048041294987343) rotate(0 27.523201346642054 0)"><path d="M0 0 C10.37 -1.58, 21.86 -1.06, 55.05 0 M0 0 C18.97 -0.93, 38.68 -0.74, 55.05 0" stroke="#1e1e1e" stroke-width="4" fill="none"></path></g></g><mask></mask><g stroke-linecap="round"><g transform="translate(10 45.26705380432395) rotate(0 27.523201346642054 0)"><path d="M0 0 C11.69 -0.89, 26.55 0.75, 55.05 0 M0 0 C21.98 -0.01, 43.37 0.11, 55.05 0" stroke="#1e1e1e" stroke-width="4" fill="none"></path></g></g><mask></mask></svg>