<svg version="1.1" xmlns="http://www.w3.org/2000/svg" viewBox="0 0 43.48892233791412 43.48892233791412" width="86.97784467582824" height="86.97784467582824"><!-- svg-source:excalidraw --><metadata></metadata><defs><style class="style-fonts">
      </style></defs><rect x="0" y="0" width="43.48892233791412" height="43.48892233791412" fill="#ffffff"></rect><g stroke-linecap="round" transform="translate(5.135284901054092 5.135284901054092) rotate(44.99999999999995 16.609176267902967 16.609176267902967)"><path d="M16.36 0.36 L33.11 16.82 L17.73 33.08 L-0.11 17.91" stroke="none" stroke-width="0" fill="#fab005" fill-rule="evenodd"></path><path d="M17 0 C22.46 4.84, 27.57 10.63, 33.22 17 M17 0 C20.72 3.96, 24.44 7.72, 33.22 17 M33.22 17 C28.02 20.61, 24.95 26.78, 17 33.22 M33.22 17 C29.76 20.08, 26.06 23.55, 17 33.22 M17 33.22 C10.77 28.12, 3.58 20.22, 0 17 M17 33.22 C12.01 28.9, 7.04 24.28, 0 17 M0 17 C5.31 11.85, 9.82 8.47, 17 0 M0 17 C5.65 11.2, 10.56 6.28, 17 0" stroke="#f08c00" stroke-width="2" fill="none"></path></g></svg>